<svg xmlns="http://www.w3.org/2000/svg" viewBox="0 0 32 32" fill="none">
  <rect width="32" height="32" rx="8" fill="#000000"/>
  <path d="M22 11.5C22 10.1193 20.8807 9 19.5 9H12.5C11.1193 9 10 10.1193 10 11.5V20.5C10 21.8807 11.1193 23 12.5 23H19.5C20.8807 23 22 21.8807 22 20.5V17H16V19H20V20.5C20 20.7761 19.7761 21 19.5 21H12.5C12.2239 21 12 20.7761 12 20.5V11.5C12 11.2239 12.2239 11 12.5 11H19.5C19.7761 11 20 11.2239 20 11.5V13H22V11.5Z" fill="#7B61FF"/>
  <circle cx="24" cy="8" r="2" fill="#00F0FF"/>
</svg>
